<svg viewBox="0 0 64 64" xmlns="http://www.w3.org/2000/svg">
  <circle cx="32" cy="32" r="31" fill="#1a3a6b"/>
  <circle cx="32" cy="32" r="27" fill="none" stroke="#c9a227" stroke-width="1.5"/>
  <!-- Book -->
  <ellipse cx="32" cy="44" rx="16" ry="3.5" fill="white" opacity="0.9"/>
  <path d="M16 44 Q32 38 48 44" stroke="white" stroke-width="1.5" fill="none"/>
  <line x1="32" y1="38" x2="32" y2="47" stroke="#1a3a6b" stroke-width="1.2"/>
  <!-- Mountains -->
  <path d="M18 43 L27 22 L35 36 L24 43Z" fill="#c9a227"/>
  <path d="M27 22 L30 30 L35 36 L32 43 L24 43Z" fill="#e8b830"/>
  <path d="M29 43 L37 20 L45 43Z" fill="#c9a227"/>
  <path d="M37 20 L40 30 L45 43 L41 43Z" fill="#d4a820"/>
  <!-- Star -->
  <polygon points="32,10 33.5,14.5 38,14.5 34.5,17 35.8,22 32,19.2 28.2,22 29.5,17 26,14.5 30.5,14.5" fill="#c9a227"/>
</svg>
